# xmcd CD database file
#
# Track frame offsets:
#	151
#	18136
#	38326
#	54334
#	80323
#	96420
#	110196
#	136215
#	147968
#	160812
#	180521
#	199012
#	217348
#
# Disc length: 3129 seconds
#
# Revision: 0
# Processed by: cddbd v1.5.1PL0 Copyright (c) Steve Scherf et al.
# Submitted via: CDex 1.50
#
DISCID=ad0c370d
DTITLE=Shirley - Rouge
DYEAR=2004
DGENRE=Jazz
TTITLE0=The Colour of the Night
TTITLE1=給我一個吻
TTITLE2=梅蘭梅蘭我愛你
TTITLE3=Summer Time
TTITLE4=我的心袌只有你沒有他
TTITLE5=南屏晚鐘
TTITLE6=棷欖榭
TTITLE7=L-O-V-E
TTITLE8=魂縈舊夢
TTITLE9=惰人的眼淚
TTITLE10=月亮代表我的心
TTITLE11=When u tell me that u love me
TTITLE12=酒醉的探戈
EXTD=YEAR: 2004
EXTT0=
EXTT1=
EXTT2=
EXTT3=
EXTT4=
EXTT5=
EXTT6=
EXTT7=
EXTT8=
EXTT9=
EXTT10=
EXTT11=
EXTT12=
PLAYORDER=
